<svg id="Layer_1" data-name="Layer 1" xmlns="http://www.w3.org/2000/svg" xmlns:xlink="http://www.w3.org/1999/xlink" width="806.2" height="598.97" viewBox="0 0 806.2 598.97">
  <defs>
    <style>
      .cls-1 {
        fill: none;
      }

      .cls-2 {
        fill: #b3b3b3;
      }

      .cls-3 {
        fill: #fff;
      }

      .cls-4 {
        fill: #1e1a1d;
      }

      .cls-13, .cls-5 {
        fill: #faaafa;
      }

      .cls-6 {
        fill: #121212;
      }

      .cls-7 {
        fill: #080808;
      }

      .cls-8 {
        opacity: 0.12;
      }

      .cls-9 {
        fill: url(#SVGID_5_);
      }

      .cls-10, .cls-11 {
        fill: #2c2c2c;
      }

      .cls-11 {
        stroke: #faaafa;
      }

      .cls-11, .cls-13 {
        stroke-miterlimit: 10;
      }

      .cls-12 {
        fill: #222;
      }

      .cls-13 {
        stroke: #000;
        stroke-width: 2px;
      }

      .cls-14 {
        fill: #d097de;
      }

      .cls-15 {
        opacity: 0.2;
      }

      .cls-16 {
        fill: url(#SVGID_8_);
      }
    </style>
    <pattern id="SVGID_5_" data-name="SVGID 5 " width="71" height="71" patternTransform="translate(-14973.86 1820.43) scale(0.1)" patternUnits="userSpaceOnUse" viewBox="0 0 71 71">
      <rect class="cls-1" width="71" height="71"/>
      <g>
        <polygon class="cls-1" points="0 0 71 0 71 71 0 71 0 0"/>
        <g>
          <polygon class="cls-1" points="0 0 71 0 71 71 0 71 0 0"/>
          <path class="cls-2" d="M41.8,35.5a6.3,6.3,0,1,1-6.3-6.3A6.27,6.27,0,0,1,41.8,35.5Z"/>
        </g>
      </g>
    </pattern>
    <pattern id="SVGID_8_" data-name="SVGID 8 " width="71" height="71" patternTransform="translate(-14973.86 1820.43) scale(0.1)" patternUnits="userSpaceOnUse" viewBox="0 0 71 71">
      <rect class="cls-1" width="71" height="71"/>
      <g>
        <polygon class="cls-1" points="0 0 71 0 71 71 0 71 0 0"/>
        <g>
          <polygon class="cls-1" points="0 0 71 0 71 71 0 71 0 0"/>
          <path class="cls-3" d="M41.8,35.5a6.3,6.3,0,1,1-6.3-6.3A6.27,6.27,0,0,1,41.8,35.5Z"/>
        </g>
      </g>
    </pattern>
  </defs>
  <title>base</title>
  <g>
    <g>
      <path class="cls-4" d="M801.3,418.7c-2.9-15.5-17.7-102.5-32-144.6-9.4-27.7-13.1-53-17-64.9-12-35.7-33-65.7-33-65.7s-9.5-13.1-10.1-16.3-4.7-8.6-4.7-8.6-17.4-5.7-62.3-5.7-53.7,5-53.7,5a22.51,22.51,0,0,1-5.9,4.8c-3.5,1.8-11.7,1.7-11.7,1.7H537.5a1,1,0,0,0-.9.3,5.3,5.3,0,0,0-.6,2H269.9a7.13,7.13,0,0,0-.6-2,1.06,1.06,0,0,0-.9-.3H235s-8.2.2-11.7-1.7a20.51,20.51,0,0,1-5.9-4.8s-8.8-5-53.7-5-62.3,5.7-62.3,5.7-4.1,5.3-4.7,8.6-10.1,16.3-10.1,16.3-21,30-33,65.7c-4,11.9-7.7,37.2-17,64.9C22.3,316.2,7.5,403.2,4.6,418.7.3,441.9-.1,508.8-.1,508.8s4.5,53.4,36.2,74.9,56.7,14,56.7,14,33.1-8.2,57.8-41.9,56.6-129.2,56.6-129.2a24.5,24.5,0,0,1,5.7-5.3,15.79,15.79,0,0,1,6.3-2.6l183.7.1,183.7-.1a15.79,15.79,0,0,1,6.3,2.6,24.5,24.5,0,0,1,5.7,5.3s31.9,95.4,56.6,129.2S713,597.7,713,597.7s25,7.5,56.7-14,36.2-74.9,36.2-74.9S805.7,441.8,801.3,418.7Z" transform="translate(0.1 0)"/>
      <path class="cls-5" d="M36.6,276c9.4-27.7,13.1-53,17-64.9,12-35.7,33-65.7,33-65.7s9.5-13.1,10.1-16.3,4.7-8.6,4.7-8.6,17.4-5.7,62.3-5.7,53.7,5,53.7,5a22.51,22.51,0,0,0,5.9,4.8c3.5,1.8,11.7,1.7,11.7,1.7h33.4a1,1,0,0,1,.9.3,5.3,5.3,0,0,1,.6,2H536.1a7.13,7.13,0,0,1,.6-2,1.06,1.06,0,0,1,.9-.3H571s8.2.2,11.7-1.7a20.51,20.51,0,0,0,5.9-4.8s8.8-5,53.7-5,62.3,5.7,62.3,5.7,4.1,5.3,4.7,8.6,10.1,16.3,10.1,16.3,21,30,33,65.7c4,11.9,7.7,37.2,17,64.9,14.3,42.1,29.1,129.1,32,144.6,3.9,20.9,4.6,77.3,4.7,88.3v-.1s-.3-66.9-4.7-90.1c-2.9-15.5-17.7-102.5-32-144.6-9.4-27.7-13.1-53-17-64.9-12-35.7-33-65.7-33-65.7s-9.5-13.1-10.1-16.3-4.7-8.6-4.7-8.6-17.4-5.7-62.3-5.7-53.7,5-53.7,5a22.51,22.51,0,0,1-5.9,4.8c-3.5,1.8-11.7,1.7-11.7,1.7H537.6a1,1,0,0,0-.9.3,5.3,5.3,0,0,0-.6,2H269.9a7.13,7.13,0,0,0-.6-2,1.06,1.06,0,0,0-.9-.3H235s-8.2.2-11.7-1.7a20.51,20.51,0,0,1-5.9-4.8s-8.8-5-53.7-5-62.3,5.7-62.3,5.7-4.1,5.3-4.7,8.6-10.1,16.3-10.1,16.3-21,30-33,65.7c-4,11.9-7.7,37.2-17,64.9C22.3,316.2,7.5,403.2,4.6,418.7.3,441.9-.1,508.8-.1,508.8v.1c.1-10.9.7-67.4,4.7-88.3C7.6,405.2,22.3,318.1,36.6,276Z" transform="translate(0.1 0)"/>
      <path class="cls-5" d="M351.2,360a76.5,76.5,0,1,0-153,0,13.4,13.4,0,0,0,.1,2c0,.7-.1,1.3-.1,2a76.5,76.5,0,0,0,153,0,13.4,13.4,0,0,0-.1-2C351.1,361.3,351.2,360.6,351.2,360Z" transform="translate(0.1 0)"/>
      <circle class="cls-4" cx="274.8" cy="356" r="73"/>
      <circle class="cls-4" cx="274.8" cy="356" r="51.5"/>
      <path class="cls-5" d="M607.8,360a76.5,76.5,0,1,0-153,0,13.4,13.4,0,0,0,.1,2c0,.7-.1,1.3-.1,2a76.5,76.5,0,0,0,153,0,13.4,13.4,0,0,0-.1-2A14.08,14.08,0,0,0,607.8,360Z" transform="translate(0.1 0)"/>
      <circle class="cls-4" cx="531.4" cy="356" r="73"/>
      <ellipse class="cls-4" cx="272.6" cy="356" rx="74.24" ry="73.27"/>
      <ellipse class="cls-4" cx="533.56" cy="356" rx="74.24" ry="73.27"/>
      <circle class="cls-4" cx="531.4" cy="356" r="51.5"/>
      <path class="cls-6" d="M534.8,128a6.57,6.57,0,0,0-6.5-5.6H277.7a6.48,6.48,0,0,0-6.5,5.6,14.77,14.77,0,0,0-.1,2.1V257.5a16.09,16.09,0,0,0,16.1,16.1H518.8a16.09,16.09,0,0,0,16.1-16.1V130.1A7.41,7.41,0,0,0,534.8,128Z" transform="translate(0.1 0)"/>
      <g>
        <path class="cls-7" d="M530.4,124.3a1.9,1.9,0,0,0-1.9-1.9H277.4a1.9,1.9,0,0,0-1.9,1.9V253.5a15.62,15.62,0,0,0,15.6,15.6H514.9a15.62,15.62,0,0,0,15.6-15.6V130.4Z" transform="translate(0.1 0)"/>
        <g class="cls-8">
          <path class="cls-9" d="M275.5,253.5a15.62,15.62,0,0,0,15.6,15.6H514.9a15.62,15.62,0,0,0,15.6-15.6V147H275.6V253.5Z" transform="translate(0.1 0)"/>
        </g>
      </g>
      <circle class="cls-4" cx="652.4" cy="244.8" r="94.3"/>
      <g>
        <circle class="cls-4" cx="153.8" cy="244.8" r="94.3"/>
        <path class="cls-5" d="M230.4,254.1l9.5-8.9a1.15,1.15,0,0,0,0-1.7l-9.5-8.9a1.12,1.12,0,0,0-1.9.8v17.8A1.15,1.15,0,0,0,230.4,254.1Z" transform="translate(0.1 0)"/>
        <path class="cls-5" d="M145,169.8h17.8a1.12,1.12,0,0,0,.8-1.9l-8.9-9.5a1.15,1.15,0,0,0-1.7,0l-8.9,9.5A1.17,1.17,0,0,0,145,169.8Z" transform="translate(0.1 0)"/>
        <path class="cls-5" d="M77.5,234.6,68,243.5a1.15,1.15,0,0,0,0,1.7l9.5,8.9a1.12,1.12,0,0,0,1.9-.8V235.5A1.15,1.15,0,0,0,77.5,234.6Z" transform="translate(0.1 0)"/>
        <path class="cls-5" d="M162.8,318.8H145a1.12,1.12,0,0,0-.8,1.9l8.9,9.5a1.15,1.15,0,0,0,1.7,0l8.9-9.5A1.17,1.17,0,0,0,162.8,318.8Z" transform="translate(0.1 0)"/>
      </g>
    </g>
    <g>
      <g>
        <path class="cls-5" d="M547.6,134.6a4.11,4.11,0,0,1-8.2,0,3.82,3.82,0,0,1,4.1-3.8A3.76,3.76,0,0,1,547.6,134.6Zm-6.7,0a2.49,2.49,0,0,0,2.6,2.7,2.54,2.54,0,0,0,2.6-2.7,2.6,2.6,0,1,0-5.2,0Z" transform="translate(0.1 0)"/>
        <path class="cls-5" d="M548.9,131h3.8c2.4,0,2.9,1.3,2.9,2.2s-.5,2.2-2.9,2.2h-2.3v2.8h-1.5Zm1.5,3.4h2.2c.7,0,1.5-.3,1.5-1.2s-.7-1.2-1.5-1.2h-2.2Z" transform="translate(0.1 0)"/>
        <path class="cls-5" d="M556.1,131H563v1.1h-2.7v6.1h-1.5v-6.1h-2.7Z" transform="translate(0.1 0)"/>
        <path class="cls-5" d="M564.1,131h1.5v7.2h-1.5Z" transform="translate(0.1 0)"/>
        <path class="cls-5" d="M575.1,134.6a4.11,4.11,0,0,1-8.2,0,3.82,3.82,0,0,1,4.1-3.8A3.76,3.76,0,0,1,575.1,134.6Zm-6.7,0a2.49,2.49,0,0,0,2.6,2.7,2.54,2.54,0,0,0,2.6-2.7,2.6,2.6,0,1,0-5.2,0Z" transform="translate(0.1 0)"/>
        <path class="cls-5" d="M576.5,131H578l3.9,5.3h0V131h1.4v7.2h-1.6l-3.9-5.3h0v5.3h-1.4V131Z" transform="translate(0.1 0)"/>
        <path class="cls-5" d="M586.2,135.8c0,1.1,1,1.5,2.2,1.5s1.8-.6,1.8-1.1a.89.89,0,0,0-.7-.9c-.6-.2-1.4-.3-2.6-.6-1.5-.3-1.9-1.1-1.9-1.8,0-1.5,1.6-2.1,3.1-2.1,1.8,0,3.3.8,3.3,2.3h-1.5c-.1-.9-.8-1.3-1.8-1.3-.7,0-1.6.2-1.6.9,0,.5.4.8,1,.9a21.45,21.45,0,0,1,2.5.6,2.07,2.07,0,0,1,1.7,1.8c0,1.6-1.7,2.3-3.4,2.3-2,0-3.5-.8-3.6-2.6h1.5Z" transform="translate(0.1 0)"/>
      </g>
      <g>
        <path class="cls-5" d="M222.2,135.8c0,1.1,1,1.5,2.2,1.5s1.8-.6,1.8-1.1a.89.89,0,0,0-.7-.9c-.6-.2-1.4-.3-2.6-.6-1.5-.3-1.9-1.1-1.9-1.8,0-1.5,1.6-2.1,3.1-2.1,1.8,0,3.3.8,3.3,2.3h-1.5c-.1-.9-.8-1.3-1.8-1.3-.7,0-1.6.2-1.6.9,0,.5.4.8,1,.9a21.45,21.45,0,0,1,2.5.6,2.07,2.07,0,0,1,1.7,1.8c0,1.6-1.7,2.3-3.4,2.3-2,0-3.5-.8-3.6-2.6h1.5Z" transform="translate(0.1 0)"/>
        <path class="cls-5" d="M228.9,131h1.5v2.9h3.9V131h1.5v7.2h-1.5v-3.3h-3.9v3.2h-1.5Z" transform="translate(0.1 0)"/>
        <path class="cls-5" d="M239.9,131h1.6l3.3,7.2h-1.6l-.8-1.9H239l-.8,1.9h-1.5Zm-.5,4.3H242l-1.3-3.1h0Z" transform="translate(0.1 0)"/>
        <path class="cls-5" d="M245.6,131h4.1c1.9,0,2.8.7,2.8,1.9a1.77,1.77,0,0,1-1.4,1.8h0a1.44,1.44,0,0,1,1.3,1.5c0,.8.1,1.6.5,1.9h-1.6a2,2,0,0,1-.2-1.1c0-1.3-.3-1.9-1.7-1.9h-2.2v3h-1.5l-.1-7.1Zm1.5,3.2h2.5c1,0,1.5-.4,1.5-1.1,0-.9-.7-1.1-1.5-1.1h-2.4v2.2Z" transform="translate(0.1 0)"/>
        <path class="cls-5" d="M254.1,131h6.2v1.1h-4.7V134h4.3v1h-4.3v2.1h4.7v1.1h-6.2Z" transform="translate(0.1 0)"/>
      </g>
    </g>
    <g>
      <g>
        <path class="cls-10" d="M697.2,109.9a2.14,2.14,0,0,0-1.1-1.9c-4.5-2.9-23.4-13.6-51.5-13.6-26.9,0-41.1,5.9-45.1,8a2.2,2.2,0,0,0-1.2,2s9.8-2.9,47.5-2.9S697.2,109.9,697.2,109.9Z" transform="translate(0.1 0)"/>
        <path class="cls-11" d="M697.1,116.8h0v-6.9s-13.7-8.4-51.4-8.4-47.5,2.9-47.5,2.9v11h0c7.7-1.3,21.2-2.6,44.1-2.6C670.8,112.9,688.2,115.2,697.1,116.8Z" transform="translate(0.1 0)"/>
      </g>
      <g>
        <path class="cls-10" d="M108.8,109.9a2.14,2.14,0,0,1,1.1-1.9c4.5-2.9,23.4-13.6,51.5-13.6,26.9,0,41.1,5.9,45.1,8a2.2,2.2,0,0,1,1.2,2s-9.8-2.9-47.5-2.9S108.8,109.9,108.8,109.9Z" transform="translate(0.1 0)"/>
        <path class="cls-11" d="M108.9,116.8h0v-6.9s13.7-8.4,51.4-8.4,47.5,2.9,47.5,2.9v11h0c-7.7-1.3-21.2-2.6-44.1-2.6C135.2,112.9,117.8,115.2,108.9,116.8Z" transform="translate(0.1 0)"/>
      </g>
    </g>
    <g>
      <g>
        <g>
          <path class="cls-10" d="M709.9,271a26.3,26.3,0,1,1,26.3-26.3A26.33,26.33,0,0,1,709.9,271Z" transform="translate(0.1 0)"/>
          <path class="cls-12" d="M709.9,219.5a25.3,25.3,0,1,1-25.3,25.3,25.33,25.33,0,0,1,25.3-25.3m0-2a27.3,27.3,0,1,0,27.3,27.3,27.34,27.34,0,0,0-27.3-27.3Z" transform="translate(0.1 0)"/>
        </g>
        <path class="cls-5" d="M709.9,225.9a18.9,18.9,0,1,0,18.9,18.9A18.95,18.95,0,0,0,709.9,225.9Zm0,34.9a16,16,0,1,1,16-16A16,16,0,0,1,709.9,260.8Z" transform="translate(0.1 0)"/>
      </g>
      <g>
        <g>
          <path class="cls-10" d="M652.3,328.6a26.3,26.3,0,1,1,26.3-26.3A26.33,26.33,0,0,1,652.3,328.6Z" transform="translate(0.1 0)"/>
          <path class="cls-12" d="M652.3,277.1A25.3,25.3,0,1,1,627,302.4a25.33,25.33,0,0,1,25.3-25.3m0-2a27.3,27.3,0,1,0,27.3,27.3,27.34,27.34,0,0,0-27.3-27.3Z" transform="translate(0.1 0)"/>
        </g>
        <polygon class="cls-5" points="666.8 290 664.8 288 652.4 300.4 640.1 288 638.1 290 650.4 302.4 638.1 314.7 640.1 316.8 652.4 304.4 664.8 316.8 666.8 314.7 654.4 302.4 666.8 290"/>
      </g>
      <g>
        <g>
          <path class="cls-10" d="M594.8,271A26.3,26.3,0,1,1,621,244.8,26.33,26.33,0,0,1,594.8,271Z" transform="translate(0.1 0)"/>
          <path class="cls-12" d="M594.7,219.5a25.3,25.3,0,1,1-25.3,25.3,25.33,25.33,0,0,1,25.3-25.3m0-2A27.3,27.3,0,1,0,622,244.8a27.34,27.34,0,0,0-27.3-27.3Z" transform="translate(0.1 0)"/>
        </g>
        <path class="cls-5" d="M606.3,230.4H580.5V259h28.6V230.4Zm0,25.9h-23v-23h23Z" transform="translate(0.1 0)"/>
      </g>
      <g>
        <g>
          <path class="cls-10" d="M652.3,213.5a26.3,26.3,0,1,1,26.3-26.3A26.33,26.33,0,0,1,652.3,213.5Z" transform="translate(0.1 0)"/>
          <path class="cls-12" d="M652.3,162A25.3,25.3,0,1,1,627,187.3,25.33,25.33,0,0,1,652.3,162m0-2a27.3,27.3,0,1,0,27.3,27.3A27.34,27.34,0,0,0,652.3,160Z" transform="translate(0.1 0)"/>
        </g>
        <path class="cls-5" d="M668.3,195.2l-16-27.6-16,27.6-1.6,2.8h35.2Zm-16,0H639.6l12.7-21.9L665,195.2Z" transform="translate(0.1 0)"/>
      </g>
    </g>
    <g>
      <g>
        <circle class="cls-4" cx="403.1" cy="316.4" r="4.1"/>
        <circle class="cls-4" cx="403.1" cy="295.5" r="4.1"/>
        <circle class="cls-4" cx="396.2" cy="305.7" r="4.1"/>
        <circle class="cls-4" cx="381.5" cy="305.7" r="4.1"/>
        <circle class="cls-4" cx="388.8" cy="316.4" r="4.1"/>
        <circle class="cls-4" cx="388.8" cy="295.5" r="4.1"/>
        <circle class="cls-4" cx="374.5" cy="295.5" r="4.1"/>
      </g>
      <g>
        <circle class="cls-4" cx="410" cy="305.7" r="4.1"/>
        <circle class="cls-4" cx="424.7" cy="305.7" r="4.1"/>
        <circle class="cls-4" cx="417.3" cy="316.4" r="4.1"/>
        <circle class="cls-4" cx="417.3" cy="295.5" r="4.1"/>
        <circle class="cls-4" cx="431.7" cy="295.5" r="4.1"/>
      </g>
    </g>
    <g>
      <circle class="cls-13" cx="403.1" cy="362" r="20.2"/>
      <g>
        <path class="cls-10" d="M404.1,368.6V355.8a1.33,1.33,0,0,1,.3-1,.57.57,0,0,1,.7-.2c.6.2.9.7.9,1.7v6.9a4.55,4.55,0,0,0,2.1.5,2.77,2.77,0,0,0,1.6-.5c1-.7,1.5-1.9,1.5-3.7a6.49,6.49,0,0,0-1.2-4.3,8.79,8.79,0,0,0-4.1-2.6c-1.3-.4-2.5-.8-3.6-1.1s-2-.5-2.9-.7V363h0v2.7h0v1.7h0v2.5h0v1.5l4.7,1.5v-3.6h0Z" transform="translate(0.1 0)"/>
        <path class="cls-10" d="M399,367.6l-1.7.6-.9.4-1.6.3-1.5-.2c-.3-.2-.4-.4-.2-.6s.2-.1.3-.2.3-.1.4-.2l1.1-.4,4.1-1.5v-2.7l-1.7.5-5.5,2-1,.4c-1.5.6-2.2,1.2-2.2,1.8.1.8,1,1.5,2.7,1.9a15.21,15.21,0,0,0,4.3.5,20.2,20.2,0,0,0,3.3-.3l.1-2.3Z" transform="translate(0.1 0)"/>
        <path class="cls-10" d="M414.8,365.3a12.88,12.88,0,0,0-2.5-.6,10.48,10.48,0,0,0-2.5-.1,26.61,26.61,0,0,0-2.8.3,15.26,15.26,0,0,0-2.6.8v2.8l3.9-1.4,1.6-.5,1.1-.3h1.4c.3.1.6.2.7.4s-.2.4-.8.6l-1.4.5-6.5,2.4v2.7l3.5-1.3,6.4-2.3.7-.4c1.5-.5,2.2-1.2,2.2-1.9S416.4,365.8,414.8,365.3Z" transform="translate(0.1 0)"/>
      </g>
    </g>
    <path class="cls-5" d="M105.2,544.5c-40.5-2.8-75.8-20.3-87.3-30.5S.4,482.5.4,482.5c-.4,15-.4,26.3-.4,26.3s4.5,53.4,36.2,74.9,56.7,14,56.7,14,33.1-8.2,57.8-41.9A192.08,192.08,0,0,0,164.8,532C164.7,531.9,145.6,547.2,105.2,544.5Z" transform="translate(0.1 0)"/>
    <path class="cls-5" d="M700.8,544.5c40.5-2.8,75.8-20.3,87.3-30.5s17.5-31.5,17.5-31.5c.4,15,.4,26.3.4,26.3s-4.5,53.4-36.2,74.9-56.7,14-56.7,14S676,588,656.39,558.16A162.52,162.52,0,0,1,641.2,532C641.3,531.9,660.4,547.2,700.8,544.5Z" transform="translate(0.1 0)"/>
    <g>
      <g>
        <path class="cls-14" d="M240.5,143.5A12.5,12.5,0,0,1,253,156v18.3a12.5,12.5,0,0,1-25,0V156a12.5,12.5,0,0,1,12.5-12.5m0-1.7A14.25,14.25,0,0,0,226.3,156v18.3a14.2,14.2,0,0,0,28.4,0V156a14.19,14.19,0,0,0-14.2-14.2Z" transform="translate(0.1 0)"/>
        <path class="cls-4" d="M240.5,143.5A12.5,12.5,0,0,0,228,156v18.3a12.5,12.5,0,0,0,25,0V156A12.5,12.5,0,0,0,240.5,143.5Z" transform="translate(0.1 0)"/>
      </g>
      <g>
        <path class="cls-14" d="M565.5,143.5A12.5,12.5,0,0,1,578,156v18.3a12.5,12.5,0,0,1-12.5,12.5h0A12.5,12.5,0,0,1,553,174.3V156a12.5,12.5,0,0,1,12.5-12.5h0m0-1.7A14.25,14.25,0,0,0,551.3,156v18.3a14.2,14.2,0,1,0,28.4,0V156a14.19,14.19,0,0,0-14.2-14.2Z" transform="translate(0.1 0)"/>
        <path class="cls-4" d="M565.5,143.5A12.5,12.5,0,0,0,553,156v18.3a12.5,12.5,0,0,0,25,0V156A12.5,12.5,0,0,0,565.5,143.5Z" transform="translate(0.1 0)"/>
      </g>
    </g>
    <path class="cls-5" d="M436.6,421H368.7c-2.8,0-4.6.6-4.6-2.2h0a5,5,0,0,1,5-5H437a5,5,0,0,1,5,5h0C442.1,421.5,439.4,421,436.6,421Z" transform="translate(0.1 0)"/>
    <path d="M408.3,418.8H371.8a.9.9,0,0,1-.9-.9h0a2,2,0,0,1,2-2h34.2a2,2,0,0,1,2,2h0A.77.77,0,0,1,408.3,418.8Z" transform="translate(0.1 0)"/>
    <path d="M430.5,419.6h-4.2a1.75,1.75,0,0,1-1.7-1.7h0a2.8,2.8,0,0,1,2.8-2.8h1.9a2.8,2.8,0,0,1,2.8,2.8h0A1.5,1.5,0,0,1,430.5,419.6Z" transform="translate(0.1 0)"/>
    <g>
      <path class="cls-5" d="M534.8,128a6.57,6.57,0,0,0-6.5-5.6H277.7a6.48,6.48,0,0,0-6.5,5.6,14.77,14.77,0,0,0-.1,2.1V257.5a16.09,16.09,0,0,0,16.1,16.1H518.8a16.09,16.09,0,0,0,16.1-16.1V130.1A7.41,7.41,0,0,0,534.8,128Z" transform="translate(0.1 0)"/>
      <g>
        <path class="cls-4" d="M530.4,124.3a1.9,1.9,0,0,0-1.9-1.9H277.4a1.9,1.9,0,0,0-1.9,1.9V253.5a15.62,15.62,0,0,0,15.6,15.6H514.9a15.62,15.62,0,0,0,15.6-15.6V130.4Z" transform="translate(0.1 0)"/>
        <g class="cls-15">
          <path class="cls-16" d="M275.5,253.5a15.62,15.62,0,0,0,15.6,15.6H514.9a15.62,15.62,0,0,0,15.6-15.6V147H275.6V253.5Z" transform="translate(0.1 0)"/>
        </g>
      </g>
    </g>
  </g>
  <g>
    <g>
      <g>
        <g>
          <path class="cls-10" d="M695.85,89.68c-6.35-.6-33.67-3.08-49.35-3.08S605,88.48,599.28,88.91c.5-7.06,3.18-44.2,4.69-50.69,1.67-7.63,7.9-21.14,16.51-27.31,1.38-1,2.62-1.91,3.76-2.76C630.64,3.39,633.85,1,642.7,1c9.65,0,24.28,5.48,33.75,20.92C684.57,35.31,694.15,81.29,695.85,89.68Z" transform="translate(0.1 0)"/>
          <path class="cls-5" d="M642.7,2c9.39,0,23.64,5.35,32.89,20.44,7.68,12.67,16.75,55.1,19,66.12-8.22-.76-33.31-3-48.1-3s-38.68,1.68-46.14,2.23c.66-9.23,3.16-43.26,4.59-49.4,1.64-7.46,7.72-20.68,16.11-26.7,1.39-1,2.66-1.94,3.78-2.77,6.41-4.77,9.34-7,17.86-7m0-2c-10.8,0-13.6,3.5-22.8,10.1S604.6,30.7,603,38s-4.8,52-4.8,52,30.4-2.4,48.3-2.4,50.6,3.2,50.6,3.2-10.7-54.4-19.8-69.4S653.5,0,642.7,0Z" transform="translate(0.1 0)"/>
        </g>
        <path class="cls-10" d="M598.7,83.2s26.1-4.4,49-4.4,47.9,4.4,47.9,4.4c1,4.7,1.6,7.6,1.6,7.6s-32.7-3.2-50.6-3.2S598.3,90,598.3,90,598.3,87.3,598.7,83.2Z" transform="translate(0.1 0)"/>
      </g>
      <g>
        <path class="cls-5" d="M648.7,65.7l-3.2,2.6a6.71,6.71,0,0,0-2,4.5h9.8V70.2H647a6.71,6.71,0,0,1,2.1-1.9,12.47,12.47,0,0,0,2.7-2.1,4.77,4.77,0,0,0,1.3-3.3,4.22,4.22,0,0,0-1.4-3.3,5.13,5.13,0,0,0-3.5-1.2c-3.1,0-4.7,1.7-4.7,5h2.7q0-2.7,2.1-2.7a1.83,1.83,0,0,1,2,2.1A3.5,3.5,0,0,1,648.7,65.7Z" transform="translate(0.1 0)"/>
        <path class="cls-5" d="M631.1,67.2h3c1.5,0,2.3.6,2.4,1.9s.2,2.5.3,3.8h3.3v-.4c-.5-.2-.7-.7-.7-1.5a2.81,2.81,0,0,1,.1-.8v-.7a3.56,3.56,0,0,0-1.8-3.5,3.25,3.25,0,0,0,2.2-3.4,3.54,3.54,0,0,0-1.3-3,4.72,4.72,0,0,0-3.2-1h-7.3V72.9h3Zm0-6.3h3.7c1.4,0,2.1.6,2.1,1.9s-.8,1.9-2.3,1.9h-3.5Z" transform="translate(0.1 0)"/>
      </g>
    </g>
    <g>
      <g>
        <g>
          <path class="cls-10" d="M110,89.68c1.7-8.39,11.29-54.37,19.41-67.76C138.92,6.48,153.55,1,163.2,1c9,0,12,2.29,18.72,7.32,1.07.8,2.22,1.67,3.49,2.59,8.62,6.18,14.84,19.69,16.51,27.31,1.51,6.5,4.2,43.64,4.7,50.7-5.74-.43-31.46-2.31-47.22-2.31S116.4,89.08,110,89.68Z" transform="translate(0.1 0)"/>
          <path class="cls-5" d="M163.2,2c8.64,0,11.61,2.23,18.12,7.12,1.07.8,2.23,1.67,3.51,2.61,8.4,6,14.48,19.24,16.12,26.73,1.43,6.12,3.93,40.15,4.59,49.38-7.46-.55-31.24-2.23-46.14-2.23s-39.89,2.2-48.1,3c2.27-11,11.33-53.45,19-66.11C139.56,7.35,153.81,2,163.2,2m0-2c-10.8,0-25.4,6.4-34.6,21.4s-19.8,69.4-19.8,69.4,32.7-3.2,50.6-3.2S207.7,90,207.7,90s-3.1-44.7-4.8-52S195.2,16.7,186,10.1,174,0,163.2,0Z" transform="translate(0.1 0)"/>
        </g>
        <path class="cls-10" d="M207.2,83.2s-26.1-4.4-49-4.4-47.9,4.4-47.9,4.4c-1,4.7-1.6,7.6-1.6,7.6s32.7-3.2,50.6-3.2S207.6,90,207.6,90,207.6,87.3,207.2,83.2Z" transform="translate(0.1 0)"/>
      </g>
      <g>
        <path class="cls-5" d="M173.3,65.7l-3.2,2.6a6.71,6.71,0,0,0-2,4.5h9.8V70.2h-6.2a6.71,6.71,0,0,1,2.1-1.9,12.47,12.47,0,0,0,2.7-2.1,4.77,4.77,0,0,0,1.3-3.3,4.22,4.22,0,0,0-1.4-3.3,5.13,5.13,0,0,0-3.5-1.2c-3.1,0-4.7,1.7-4.7,5h2.7q0-2.7,2.1-2.7a1.83,1.83,0,0,1,2,2.1A3.63,3.63,0,0,1,173.3,65.7Z" transform="translate(0.1 0)"/>
        <polygon class="cls-5" points="164.9 70.1 157.8 70.1 157.8 58.5 154.8 58.5 154.8 72.8 164.9 72.8 164.9 70.1"/>
      </g>
    </g>
  </g>
</svg>
