<svg id="Layer_1" data-name="Layer 1" xmlns="http://www.w3.org/2000/svg" width="98.9" height="22.4" viewBox="0 0 98.9 22.4">
  <defs>
    <style>
      .cls-1 {
        fill: #faaafa;
      }
    </style>
  </defs>
  <title>bumper</title>
  <g>
    <path class="cls-1" d="M0,15.5a2.14,2.14,0,0,1,1.1-1.9C5.6,10.7,24.4,0,52.6,0,79.5,0,93.7,5.9,97.7,8a2.2,2.2,0,0,1,1.2,2S89.1,7.1,51.4,7.1,0,15.5,0,15.5Z" transform="translate(0 0)"/>
    <path class="cls-1" d="M0,22.4H0V15.5S13.7,7.1,51.4,7.1,98.9,10,98.9,10V21h0c-7.7-1.3-21.2-2.6-44.1-2.6C26.3,18.4,8.9,20.7,0,22.4Z" transform="translate(0 0)"/>
  </g>
</svg>
