<svg id="Layer_1" data-name="Layer 1" xmlns="http://www.w3.org/2000/svg" width="176.53" height="51.03" viewBox="0 0 176.53 51.03">
  <defs>
    <style>
      .cls-1, .cls-2 {
        fill: #faaafa;
      }

      .cls-2 {
        opacity: 0.1;
        isolation: isolate;
      }
    </style>
  </defs>
  <title>dpad</title>
  <g>
    <path class="cls-1" d="M124.5,73.6c1.4-2,1.2-2.9,1.2-2.9s.2-.9-1.2-2.9-15-13.6-15.7-14-28.5-2.2-31.4,1.3-2.6,15.6-2.6,15.6-.3,12.1,2.6,15.6,30.7,1.7,31.4,1.3S123.1,75.6,124.5,73.6Z" transform="translate(-0.98 -52.98)"/>
    <path class="cls-2" d="M124.5,73.6c1.4-2,1.2-2.9,1.2-2.9s.2-.9-1.2-2.9c-.9-1.3-6.9-6.6-11.2-10.3a27.84,27.84,0,0,0-3.4,13.2,26.73,26.73,0,0,0,3.4,13.2C117.6,80.2,123.6,74.9,124.5,73.6Z" transform="translate(-0.98 -52.98)"/>
  </g>
  <g>
    <path class="cls-1" d="M21.6,54.3c-2-1.4-2.9-1.2-2.9-1.2s-.9-.2-2.9,1.2S2.2,69.3,1.8,70-.4,98.5,3.1,101.4,18.7,104,18.7,104s12.1.3,15.6-2.6S36,70.7,35.6,70,23.6,55.6,21.6,54.3Z" transform="translate(-0.98 -52.98)"/>
    <path class="cls-2" d="M21.6,54.3c-2-1.4-2.9-1.2-2.9-1.2s-.9-.2-2.9,1.2c-1.3.9-6.6,6.9-10.3,11.2a27.84,27.84,0,0,0,13.2,3.4,26.73,26.73,0,0,0,13.2-3.4C28.2,61.1,22.9,55.1,21.6,54.3Z" transform="translate(-0.98 -52.98)"/>
  </g>
  <g>
    <path class="cls-1" d="M52.2,102.8c2,1.4,2.9,1.2,2.9,1.2s.9.2,2.9-1.2,13.6-15,14-15.7,2.2-28.5-1.3-31.4-15.6-2.6-15.6-2.6S43,52.8,39.5,55.7s-1.7,30.7-1.3,31.4S50.2,101.4,52.2,102.8Z" transform="translate(-0.98 -52.98)"/>
    <path class="cls-2" d="M52.2,102.8c2,1.4,2.9,1.2,2.9,1.2s.9.2,2.9-1.2c1.3-.9,6.6-6.9,10.3-11.2a27.84,27.84,0,0,0-13.2-3.4,26.73,26.73,0,0,0-13.2,3.4C45.6,95.9,50.9,101.9,52.2,102.8Z" transform="translate(-0.98 -52.98)"/>
  </g>
  <g>
    <path class="cls-1" d="M174.9,55.2c-2.9-3.5-30.7-1.7-31.4-1.3s-14.3,12-15.7,14-1.2,2.9-1.2,2.9-.2.9,1.2,2.9,15,13.6,15.7,14,28.5,2.2,31.4-1.3,2.6-15.6,2.6-15.6S177.7,58.7,174.9,55.2Z" transform="translate(-0.98 -52.98)"/>
    <path class="cls-2" d="M139,57.6c-4.3,3.7-10.3,9-11.2,10.3-1.4,2-1.2,2.9-1.2,2.9s-.2.9,1.2,2.9c.9,1.3,6.9,6.6,11.2,10.3a27.32,27.32,0,0,0,0-26.4Z" transform="translate(-0.98 -52.98)"/>
  </g>
</svg>
