<svg id="Layer_1" data-name="Layer 1" xmlns="http://www.w3.org/2000/svg" width="176.53" height="104.03" viewBox="0 0 176.53 104.03">
  <defs>
    <style>
      .cls-1 {
        fill: #2c2c2c;
      }

      .cls-2, .cls-4 {
        fill: #faaafa;
      }

      .cls-3 {
        opacity: 0.25;
      }

      .cls-3, .cls-4 {
        isolation: isolate;
      }

      .cls-4 {
        opacity: 0.1;
      }
    </style>
  </defs>
  <title>dpad</title>
  <g>
    <g>
      <path class="cls-1" d="M92.57,34.92c-11.9,0-14.3-1.35-14.79-1.94C75,29.66,75.3,17.83,75.3,17.71S75,5.73,77.79,2.42C78.27,1.84,80.67.48,92.57.48a140.44,140.44,0,0,1,16,.78c.66.42,14.1,11.86,15.48,13.83,1.21,1.72,1.12,2.52,1.12,2.53v.09l0,.11s.07.8-1.12,2.5c-1.38,2-14.82,13.41-15.54,13.85a149.21,149.21,0,0,1-16,.75Z" transform="translate(-0.98 0.02)"/>
      <path class="cls-2" d="M92.57,1a152.25,152.25,0,0,1,15.81.74c1.63,1.2,14.09,11.91,15.3,13.65a5.11,5.11,0,0,1,1,2.12l-.13,0,.14.34a4.91,4.91,0,0,1-1,2.15c-1.22,1.75-13.76,12.54-15.3,13.65a152,152,0,0,1-15.81.74c-12.32,0-14.16-1.46-14.4-1.76C76,30,75.72,21,75.8,17.68c-.08-3.26.19-12.31,2.37-14.94C78.41,2.44,80.25,1,92.57,1m0-1c-7,0-13.81.47-15.17,2.12-2.9,3.5-2.6,15.6-2.6,15.6s-.3,12.1,2.6,15.6c1.36,1.64,8.21,2.12,15.17,2.12a131.78,131.78,0,0,0,16.23-.82c.7-.4,14.3-12,15.7-14s1.2-2.9,1.2-2.9.2-.9-1.2-2.9-15-13.6-15.7-14A131.8,131.8,0,0,0,92.57,0Z" transform="translate(-0.98 0.02)"/>
    </g>
    <path class="cls-3" d="M124.5,20.6c1.4-2,1.2-2.9,1.2-2.9s.2-.9-1.2-2.9c-.9-1.3-6.9-6.6-11.2-10.3a27.84,27.84,0,0,0-3.4,13.2,26.73,26.73,0,0,0,3.4,13.2C117.6,27.2,123.6,21.9,124.5,20.6Z" transform="translate(-0.98 0.02)"/>
  </g>
  <g>
    <g>
      <path class="cls-1" d="M19.66,50.51H17.74c-2.65,0-11.53-.18-14.32-2.49C.2,45.35,1.82,18.62,2.26,17.19c.42-.66,11.86-14.1,13.83-15.48A4.85,4.85,0,0,1,18.56.59l.11,0,.14,0a4.83,4.83,0,0,1,2.5,1.12c2,1.31,13.46,14.83,13.84,15.52.42,1.39,2,28.12-1.17,30.79-2.79,2.31-11.67,2.49-14.32,2.49Z" transform="translate(-0.98 0.02)"/>
      <path class="cls-2" d="M18.88,1.09a5,5,0,0,1,2.18,1C22.84,3.3,33.75,16,34.67,17.4a146.59,146.59,0,0,1,.74,14.94c.07,13.11-1.45,15-1.75,15.29C31.55,49.38,25,50,19.66,50H17.74c-5.38,0-11.88-.62-14-2.38C3.43,47.38,1.91,45.45,2,32.34a148.19,148.19,0,0,1,.74-14.92c1.2-1.64,11.91-14.09,13.65-15.3a5.07,5.07,0,0,1,2.12-1l0,.14.34-.14m-.31-1A5.26,5.26,0,0,0,15.8,1.3c-2,1.4-13.6,15-14,15.7S-.4,45.5,3.1,48.4C6,50.8,14.8,51,17.74,51h1.93C22.6,51,31.4,50.8,34.3,48.4,37.8,45.5,36,17.7,35.6,17s-12-14.4-14-15.7A5.26,5.26,0,0,0,18.84.09h-.27Z" transform="translate(-0.98 0.02)"/>
    </g>
    <path class="cls-3" d="M21.6,1.3C19.6-.1,18.7.1,18.7.1s-.9-.2-2.9,1.2c-1.3.9-6.6,6.9-10.3,11.2a27.84,27.84,0,0,0,13.2,3.4,26.73,26.73,0,0,0,13.2-3.4C28.2,8.1,22.9,2.1,21.6,1.3Z" transform="translate(-0.98 0.02)"/>
  </g>
  <g>
    <g>
      <path class="cls-1" d="M56,50.51a4.83,4.83,0,0,1-2.5-1.12c-2-1.38-13.41-14.82-13.85-15.54-.41-1.36-2-28.1,1.19-30.76C43.61.77,52.48.59,55.14.59h1.93c2.65,0,11.52.18,14.32,2.49,3.22,2.67,1.6,29.4,1.16,30.83-.42.66-11.86,14.1-13.83,15.48a4.84,4.84,0,0,1-2.48,1.12H56.1Z" transform="translate(-0.98 0.02)"/>
      <path class="cls-2" d="M55.14,1.09h1.92c5.38,0,11.88.62,14,2.38.31.25,1.83,2.18,1.75,15.29a148.19,148.19,0,0,1-.74,14.92C70.88,35.31,60.17,47.76,58.43,49a5.07,5.07,0,0,1-2.12,1l0-.13-.34.14a4.86,4.86,0,0,1-2.15-1C52,47.76,41.24,35.22,40.12,33.68a147.87,147.87,0,0,1-.74-14.92c-.07-13.11,1.45-15,1.75-15.29,2.12-1.75,8.62-2.38,14-2.38m1.92-1H55.14C52.2.09,43.4.3,40.5,2.7,37,5.6,38.8,33.4,39.2,34.1s12,14.3,14,15.7A5.26,5.26,0,0,0,56,51h.27A5.26,5.26,0,0,0,59,49.8c2-1.4,13.6-15,14-15.7S75.2,5.6,71.7,2.7C68.8.3,60,.09,57.06.09Z" transform="translate(-0.98 0.02)"/>
    </g>
    <path class="cls-3" d="M53.2,49.8c2,1.4,2.9,1.2,2.9,1.2s.9.2,2.9-1.2c1.3-.9,6.6-6.9,10.3-11.2a27.84,27.84,0,0,0-13.2-3.4,26.73,26.73,0,0,0-13.2,3.4C46.6,42.9,51.9,48.9,53.2,49.8Z" transform="translate(-0.98 0.02)"/>
  </g>
  <g>
    <g>
      <path class="cls-1" d="M159.73,35.12a140.25,140.25,0,0,1-16-.78c-.66-.42-14.1-11.86-15.48-13.83C127,18.79,127.09,18,127.09,18V17.9l0-.11s-.07-.8,1.12-2.51c1.38-2,14.82-13.41,15.54-13.85a149.07,149.07,0,0,1,16-.75C171.63.68,174,2,174.52,2.62,177.17,5.93,177,17.77,177,17.89s.26,12-2.48,15.29c-.48.58-2.89,1.94-14.78,1.94Z" transform="translate(-0.98 0.02)"/>
      <path class="cls-2" d="M159.73,1.18c12.32,0,14.16,1.46,14.39,1.74,2.11,2.64,2.43,11.69,2.38,15s-.19,12.31-2.37,14.94c-.24.29-2.08,1.76-14.4,1.76a152.24,152.24,0,0,1-15.81-.74c-1.63-1.2-14.09-11.91-15.3-13.65a5.11,5.11,0,0,1-1-2.12l.13,0-.14-.34a4.91,4.91,0,0,1,1-2.15c1.22-1.75,13.76-12.54,15.3-13.65a152,152,0,0,1,15.81-.74m0-1A131.77,131.77,0,0,0,143.5,1c-.7.4-14.3,12-15.7,14s-1.2,2.9-1.2,2.9-.2.9,1.2,2.9,15,13.6,15.7,14a131.79,131.79,0,0,0,16.23.82c7,0,13.81-.47,15.17-2.12,2.9-3.5,2.6-15.6,2.6-15.6s.2-12.1-2.6-15.6C173.54.66,166.69.18,159.73.18Z" transform="translate(-0.98 0.02)"/>
    </g>
    <path class="cls-3" d="M139,4.7c-4.3,3.7-10.3,9-11.2,10.3-1.4,2-1.2,2.9-1.2,2.9s-.2.9,1.2,2.9c.9,1.3,6.9,6.6,11.2,10.3a27.84,27.84,0,0,0,3.4-13.2A27.84,27.84,0,0,0,139,4.7Z" transform="translate(-0.98 0.02)"/>
  </g>
  <g>
    <path class="cls-2" d="M124.5,73.6c1.4-2,1.2-2.9,1.2-2.9s.2-.9-1.2-2.9-15-13.6-15.7-14-28.5-2.2-31.4,1.3-2.6,15.6-2.6,15.6-.3,12.1,2.6,15.6,30.7,1.7,31.4,1.3S123.1,75.6,124.5,73.6Z" transform="translate(-0.98 0.02)"/>
    <path class="cls-4" d="M124.5,73.6c1.4-2,1.2-2.9,1.2-2.9s.2-.9-1.2-2.9c-.9-1.3-6.9-6.6-11.2-10.3a27.84,27.84,0,0,0-3.4,13.2,26.73,26.73,0,0,0,3.4,13.2C117.6,80.2,123.6,74.9,124.5,73.6Z" transform="translate(-0.98 0.02)"/>
  </g>
  <g>
    <path class="cls-2" d="M21.6,54.3c-2-1.4-2.9-1.2-2.9-1.2s-.9-.2-2.9,1.2S2.2,69.3,1.8,70-.4,98.5,3.1,101.4,18.7,104,18.7,104s12.1.3,15.6-2.6S36,70.7,35.6,70,23.6,55.6,21.6,54.3Z" transform="translate(-0.98 0.02)"/>
    <path class="cls-4" d="M21.6,54.3c-2-1.4-2.9-1.2-2.9-1.2s-.9-.2-2.9,1.2c-1.3.9-6.6,6.9-10.3,11.2a27.84,27.84,0,0,0,13.2,3.4,26.73,26.73,0,0,0,13.2-3.4C28.2,61.1,22.9,55.1,21.6,54.3Z" transform="translate(-0.98 0.02)"/>
  </g>
  <g>
    <path class="cls-2" d="M53.2,102.8c2,1.4,2.9,1.2,2.9,1.2s.9.2,2.9-1.2,13.6-15,14-15.7,2.2-28.5-1.3-31.4-15.6-2.6-15.6-2.6S44,52.8,40.5,55.7s-1.7,30.7-1.3,31.4S51.2,101.4,53.2,102.8Z" transform="translate(-0.98 0.02)"/>
    <path class="cls-4" d="M53.2,102.8c2,1.4,2.9,1.2,2.9,1.2s.9.2,2.9-1.2c1.3-.9,6.6-6.9,10.3-11.2a27.84,27.84,0,0,0-13.2-3.4,26.73,26.73,0,0,0-13.2,3.4C46.6,95.9,51.9,101.9,53.2,102.8Z" transform="translate(-0.98 0.02)"/>
  </g>
  <g>
    <path class="cls-2" d="M174.9,55.2c-2.9-3.5-30.7-1.7-31.4-1.3s-14.3,12-15.7,14-1.2,2.9-1.2,2.9-.2.9,1.2,2.9,15,13.6,15.7,14,28.5,2.2,31.4-1.3,2.6-15.6,2.6-15.6S177.7,58.7,174.9,55.2Z" transform="translate(-0.98 0.02)"/>
    <path class="cls-4" d="M139,57.6c-4.3,3.7-10.3,9-11.2,10.3-1.4,2-1.2,2.9-1.2,2.9s-.2.9,1.2,2.9c.9,1.3,6.9,6.6,11.2,10.3a27.32,27.32,0,0,0,0-26.4Z" transform="translate(-0.98 0.02)"/>
  </g>
</svg>
