<svg xmlns="http://www.w3.org/2000/svg" xmlns:xlink="http://www.w3.org/1999/xlink" width="286" height="94.3" viewBox="0 0 286 94.3">
  <defs>
    <style>
      .cls-1 {
        isolation: isolate;
      }

      .cls-2 {
        fill: #faaafa;
      }

      .cls-3 {
        fill: #2c2c2c;
      }

      .cls-4 {
        mix-blend-mode: luminosity;
      }

      .cls-5 {
        fill: url(#linear-gradient);
      }

      .cls-6 {
        fill: url(#linear-gradient-2);
      }

      .cls-7 {
        fill: url(#linear-gradient-3);
      }

      .cls-8 {
        fill: url(#linear-gradient-4);
      }
    </style>
    <linearGradient id="linear-gradient" x1="-946.65" y1="404.69" x2="-967.96" y2="426.01" gradientTransform="matrix(-3.81, 0, 0, 3.81, -3602.02, -1537.36)" gradientUnits="userSpaceOnUse">
      <stop offset="0" stop-color="#cfd8df"/>
      <stop offset="1" stop-color="#b1c0cb"/>
    </linearGradient>
    <linearGradient id="linear-gradient-2" x1="-601.5" y1="368.04" x2="-581.84" y2="348.37" gradientTransform="matrix(3.8, 0, 0, -3.8, 2292.79, 1405.45)" gradientUnits="userSpaceOnUse">
      <stop offset="0" stop-color="#d8e0e6"/>
      <stop offset="1" stop-color="#bdcad3"/>
    </linearGradient>
    <linearGradient id="linear-gradient-3" x1="-581.14" y1="350.45" x2="-595.98" y2="364.82" gradientTransform="matrix(3.74, 0, 0, -3.74, 2244.68, 1381.43)" gradientUnits="userSpaceOnUse">
      <stop offset="0" stop-color="#dfe7eb"/>
      <stop offset="1" stop-color="#afbfcb"/>
    </linearGradient>
    <linearGradient id="linear-gradient-4" x1="-577.95" y1="349.69" x2="-592.56" y2="364.3" gradientTransform="matrix(3.68, 0, 0, -3.68, 2196.81, 1357.53)" gradientUnits="userSpaceOnUse">
      <stop offset="0" stop-color="#dce3e8"/>
      <stop offset="1" stop-color="#aec0cc"/>
    </linearGradient>
  </defs>
  <title>sticks</title>
  <g class="cls-1">
    <g id="Layer_1" data-name="Layer 1">
      <g>
        <g>
          <g>
            <path class="cls-2" d="M47,92.5A45.5,45.5,0,1,1,92.5,47,45.54,45.54,0,0,1,47,92.5Z" transform="translate(0 0.3)"/>
            <path class="cls-2" d="M47,3A44,44,0,1,1,3,47,44,44,0,0,1,47,3m0-3A47,47,0,1,0,94,47,46.95,46.95,0,0,0,47,0Z" transform="translate(0 0.3)"/>
          </g>
          <circle class="cls-2" cx="47" cy="47.3" r="35.07"/>
        </g>
        <g>
          <g>
            <path class="cls-3" d="M143,92.5A45.5,45.5,0,1,1,188.5,47,45.54,45.54,0,0,1,143,92.5Z" transform="translate(0 0.3)"/>
            <path class="cls-3" d="M143,3A44,44,0,1,1,99,47,44,44,0,0,1,143,3m0-3a47,47,0,1,0,47,47A46.95,46.95,0,0,0,143,0Z" transform="translate(0 0.3)"/>
          </g>
          <circle class="cls-3" cx="143" cy="47.3" r="27.3"/>
          <g>
            <path class="cls-2" d="M125.1,33.5h4.6V55.9h13.4v4h-18Z" transform="translate(0 0.3)"/>
            <path class="cls-2" d="M151.9,44.8c2.8.1,5.7-.9,5.7-4.1a3.71,3.71,0,0,0-4-3.7c-2.9,0-4.4,2.6-4.3,5.3h-4.2c.2-5,3.4-8.8,8.6-8.8,4,0,8.2,2.3,8.2,6.9,0,2.6-1.1,4.7-3.7,5.5V46c3,.6,4.7,3.1,4.7,6.5,0,4.9-4.3,7.9-9.2,7.9-6,0-9-3.6-9.1-9h4.2c-.1,3.1,1.6,5.5,4.9,5.5,2.8,0,5-1.7,5-4.6,0-4-3.4-4.5-6.8-4.4V44.8Z" transform="translate(0 0.3)"/>
          </g>
        </g>
        <g>
          <g>
            <path class="cls-3" d="M239,92.5A45.5,45.5,0,1,1,284.5,47,45.54,45.54,0,0,1,239,92.5Z" transform="translate(0 0.3)"/>
            <path class="cls-3" d="M239,3a44,44,0,1,1-44,44A44,44,0,0,1,239,3m0-3a47,47,0,1,0,47,47A46.95,46.95,0,0,0,239,0Z" transform="translate(0 0.3)"/>
          </g>
          <circle class="cls-3" cx="239" cy="47.3" r="27.3"/>
          <g>
            <path class="cls-2" d="M218.7,33.5h12.6c5.8,0,8.7,2.7,8.7,7.1,0,5.1-3.5,6.4-4.4,6.7v.1c1.6.2,3.9,1.4,3.9,5.6,0,3.1.4,5.9,1.4,7h-5a7.36,7.36,0,0,1-.7-3.9c0-4.8-1-7-5.3-7h-6.8V60h-4.6V33.5Zm4.6,12.1h7.6q4.5,0,4.5-4.2c0-3.4-2.2-4-4.6-4h-7.5Z" transform="translate(0 0.3)"/>
            <path class="cls-2" d="M250.3,44.8c2.8.1,5.7-.9,5.7-4.1a3.71,3.71,0,0,0-4-3.7c-2.9,0-4.4,2.6-4.3,5.3h-4.2c.2-5,3.4-8.8,8.6-8.8,4,0,8.2,2.3,8.2,6.9,0,2.6-1.1,4.7-3.7,5.5V46c3,.6,4.7,3.1,4.7,6.5,0,4.9-4.3,7.9-9.2,7.9-6,0-9-3.6-9.1-9h4.2c-.1,3.1,1.6,5.5,4.9,5.5,2.8,0,5-1.7,5-4.6,0-4-3.4-4.5-6.8-4.4V44.8Z" transform="translate(0 0.3)"/>
          </g>
        </g>
        <g id="g24663" class="cls-4">
          <circle id="circle4611" class="cls-5" cx="47" cy="47" r="47"/>
          <circle id="circle4613" class="cls-6" cx="47" cy="47" r="44.42"/>
          <circle id="circle4615" class="cls-7" cx="47" cy="47" r="33.99"/>
          <circle id="circle4617" class="cls-8" cx="47" cy="47" r="31.38"/>
        </g>
      </g>
    </g>
  </g>
</svg>
